{"title":"Queen (2014) - 1CD - DVDRip - Hindi - x264 - MP3 - Mafiaking - [","uid":10040334,"size":752066591,"categoryP":"video","categoryS":"other","magnet":"?xt=urn:btih:e5a9e474dbf655db946a27726bd1e27f6f70237c&amp;dn=Queen+%282014%29+-+1CD+-+DVDRip+-+Hindi+-+x264+-+MP3+-+Mafiaking+-+%5B&amp;tr=udp%3A%2F%2Ftracker.openbittorrent.com%3A80&amp;tr=udp%3A%2F%2Fopen.demonii.com%3A1337&amp;tr=udp%3A%2F%2Ftracker.coppersurfer.tk%3A6969&amp;tr=udp%3A%2F%2Fexodus.desync.com%3A6969","seeders":12,"leechers":12,"uploader":"raux123","files":3,"time":1398457352,"description":"Queen (2014) - 1CD - DVDRip - Hindi - x264 - MP3 - Mafiaking - [D3Si MaNiaCs] \n\n\nCover:\n &lt;a href=&quot;\nhttp://imgfun.biz/x/img-535aa5d3470f3.html&quot; rel=&quot;nofollow&quot; target=&quot;_NEW&quot;&gt;\nhttp://imgfun.biz/x/img-535aa5d3470f3.html&lt;/a&gt;\n\n\n\n\nINFO:\n\nGENRE: Comedy | Drama\n\n\nGeneral\n\nFormat : Matroska\nFormat version : Version 4 / Version 2\nFile size : 711 MiB\nDuration : 2h 25mn\nOverall bit rate : 686 Kbps\nMovie name : Queen (2014) - 1CD - DVDRip - Hindi - x264 - MP3 - Mafiaking - [D3Si MaNiaCs]\nEncoded date : UTC 2014-04-25 12:45:34\nWriting application : mkvmerge v6.5.0 ('Isn't she lovely') built on Oct 20 2013 12:50:05\nWriting library : libebml v1.3.0 + libmatroska v1.4.1\n\nVideo\n\nID : 1\nFormat : AVC\nFormat/Info : Advanced Video Codec\nFormat profile : &lt;a class=&quot;__cf_email__&quot; href=&quot;/cdn-cgi/l/email-protection&quot; data-cfemail=&quot;c189a8a6a9818df2eff1&quot;&gt;[email&amp;#160;protected]&lt;/a&gt;&lt;script cf-hash='f9e31' type=&quot;text/javascript&quot;&gt;\n/* &lt;![CDATA[ */!function(){try{var t=&quot;currentScript&quot;in document?document.currentScript:function(){for(var t=document.getElementsByTagName(&quot;script&quot;),e=t.length;e--;)if(t[e].getAttribute(&quot;cf-hash&quot;))return t[e]}();if(t&amp;&amp;t.previousSibling){var e,r,n,i,c=t.previousSibling,a=c.getAttribute(&quot;data-cfemail&quot;);if(a){for(e=&quot;&quot;,r=parseInt(a.substr(0,2),16),n=2;a.length-n;n+=2)i=parseInt(a.substr(n,2),16)^r,e+=String.fromCharCode(i);e=document.createTextNode(e),c.parentNode.replaceChild(e,c)}}}catch(u){}}();/* ]]&gt; */&lt;/script&gt;\nFormat settings, CABAC : Yes\nFormat settings, ReFrames : 4 frames\nCodec ID : V_MPEG4/ISO/AVC\nDuration : 2h 25mn\nBit rate : 620 Kbps\nWidth : 640 pixels\nHeight : 272 pixels\nDisplay aspect ratio : 2.35:1\nFrame rate mode : Constant\nFrame rate : 29.970 fps\nColor space : YUV\nChroma subsampling : 4:2:0\nBit depth : 8 bits\nScan type : Progressive\nBits/(Pixel*Frame) : 0.119\nStream size : 631 MiB (89%)\nTitle : Mafiaking\nWriting library : x264 core 138 r2358 9e941d1\nLanguage : Hindi\nDefault : Yes\nForced : No\n\n\nAudio\n\nID : 2\nFormat : MPEG Audio\nFormat version : Version 2\nFormat profile : Layer 3\nMode : Joint stereo\nCodec ID : A_MPEG/L3\nCodec ID/Hint : MP3\nDuration : 2h 25mn\nBit rate mode : Constant\nBit rate : 64.0 Kbps\nChannel(s) : 2 channels\nSampling rate : 24.0 KHz\nCompression mode : Lossy\nStream size : 66.4 MiB (9%)\nTitle : Mafiaking\nLanguage : Hindi\nDefault : Yes\nForced : No\n\n\nscreens:\n &lt;a href=&quot;\nhttp://imgfun.biz/x/img-535aa637ee53b.html&quot; rel=&quot;nofollow&quot; target=&quot;_NEW&quot;&gt;\nhttp://imgfun.biz/x/img-535aa637ee53b.html&lt;/a&gt;","torrent":{"xt":"urn:btih:e5a9e474dbf655db946a27726bd1e27f6f70237c","amp;dn":"Queen+%282014%29+-+1CD+-+DVDRip+-+Hindi+-+x264+-+MP3+-+Mafiaking+-+%5B","amp;tr":["udp%3A%2F%2Ftracker.openbittorrent.com%3A80","udp%3A%2F%2Fopen.demonii.com%3A1337","udp%3A%2F%2Ftracker.coppersurfer.tk%3A6969","udp%3A%2F%2Fexodus.desync.com%3A6969"],"infoHash":"e5a9e474dbf655db946a27726bd1e27f6f70237c","infoHashBuffer":{"type":"Buffer","data":[229,169,228,116,219,246,85,219,148,106,39,114,107,209,226,127,111,112,35,124]},"announce":[],"urlList":[]}}